<?xml version="1.0" standalone="no"?><!DOCTYPE svg PUBLIC "-//W3C//DTD SVG 1.1//EN" "http://www.w3.org/Graphics/SVG/1.1/DTD/svg11.dtd"><svg t="1744860228623" class="icon" viewBox="0 0 1024 1024" version="1.1" xmlns="http://www.w3.org/2000/svg" p-id="1668" xmlns:xlink="http://www.w3.org/1999/xlink" width="32" height="32"><path d="M726 290c16.569 0 30 13.431 30 30v54L636 548H388L268 374v-54c0-16.569 13.431-30 30-30h428z m-90 298v342c0 16.569-13.431 30-30 30H418c-16.569 0-30-13.431-30-30V588h248z m-124 90c-13.807 0-25 11.193-25 25v60c0 13.807 11.193 25 25 25s25-11.193 25-25v-60c0-13.807-11.193-25-25-25z m-1.622-613c13.807 0 25 11.193 25 25v110c0 13.807-11.193 25-25 25s-25-11.193-25-25V90c0-13.807 11.193-25 25-25z m226.273 55.539c11.957 6.903 16.054 22.193 9.15 34.15l-55 95.263c-6.903 11.957-22.193 16.054-34.15 9.15-11.958-6.903-16.055-22.193-9.151-34.15l55-95.263c6.904-11.957 22.193-16.054 34.15-9.15z m-450 9.5c11.957-6.904 27.247-2.807 34.15 9.15l55 95.263c6.904 11.957 2.807 27.247-9.15 34.15-11.958 6.904-27.247 2.807-34.151-9.15l-55-95.263c-6.904-11.957-2.807-27.247 9.15-34.15z" fill="#ffffff" p-id="1669"></path></svg>